<svg width="35" height="35" viewBox="0 0 35 35" fill="none" xmlns="http://www.w3.org/2000/svg">
<path d="M14.5833 23.3333H23.3333M29.1667 8.74992V26.2499C29.1667 27.0235 28.8594 27.7653 28.3124 28.3123C27.7654 28.8593 27.0235 29.1666 26.25 29.1666H11.6667C10.8931 29.1666 10.1513 28.8593 9.60427 28.3123C9.05729 27.7653 8.75 27.0235 8.75 26.2499V8.74992C8.75 7.97637 9.05729 7.2345 9.60427 6.68752C10.1513 6.14054 10.8931 5.83325 11.6667 5.83325H26.25C27.0235 5.83325 27.7654 6.14054 28.3124 6.68752C28.8594 7.2345 29.1667 7.97637 29.1667 8.74992Z" stroke="#056AB5" stroke-width="2.5" stroke-linecap="round" stroke-linejoin="round"/>
<path d="M5.83301 11.6665H10.208M5.83301 17.4998H10.208M5.83301 23.3332H10.208M16.0413 16.0415C16.0413 16.8151 16.3486 17.5569 16.8956 18.1039C17.4426 18.6509 18.1845 18.9582 18.958 18.9582C19.7316 18.9582 20.4734 18.6509 21.0204 18.1039C21.5674 17.5569 21.8747 16.8151 21.8747 16.0415C21.8747 15.268 21.5674 14.5261 21.0204 13.9791C20.4734 13.4321 19.7316 13.1248 18.958 13.1248C18.1845 13.1248 17.4426 13.4321 16.8956 13.9791C16.3486 14.5261 16.0413 15.268 16.0413 16.0415Z" stroke="#056AB5" stroke-width="2.5" stroke-linecap="round" stroke-linejoin="round"/>
</svg>
