<svg width="30" height="30" viewBox="0 0 30 30" fill="none" xmlns="http://www.w3.org/2000/svg">
<path d="M26.25 14.5459C26.8359 14.9463 27.3584 15.4004 27.8174 15.9082C28.2764 16.416 28.6719 16.9727 29.0039 17.5781C29.3359 18.1836 29.5801 18.8232 29.7363 19.4971C29.8926 20.1709 29.9805 20.8594 30 21.5625C30 22.7246 29.7803 23.8184 29.3408 24.8438C28.9014 25.8691 28.2959 26.7627 27.5244 27.5244C26.7529 28.2861 25.8594 28.8867 24.8438 29.3262C23.8281 29.7656 22.7344 29.9902 21.5625 30C20.6738 30 19.8145 29.8682 18.9844 29.6045C18.1543 29.3408 17.3926 28.96 16.6992 28.4619C16.0059 27.9639 15.3906 27.3682 14.8535 26.6748C14.3164 25.9814 13.9014 25.2148 13.6084 24.375H1.875V1.875H5.625V0H7.5V1.875H20.625V0H22.5V1.875H26.25V14.5459ZM3.75 3.75V7.5H24.375V3.75H22.5V5.625H20.625V3.75H7.5V5.625H5.625V3.75H3.75ZM13.1689 22.5C13.1396 22.1973 13.125 21.8848 13.125 21.5625C13.125 20.7227 13.2422 19.9072 13.4766 19.1162C13.7109 18.3252 14.0674 17.5781 14.5459 16.875H13.125V15H15V16.2598C15.4004 15.7617 15.8447 15.3223 16.333 14.9414C16.8213 14.5605 17.3486 14.2334 17.915 13.96C18.4814 13.6865 19.0723 13.4814 19.6875 13.3447C20.3027 13.208 20.9277 13.1348 21.5625 13.125C22.5391 13.125 23.4766 13.2861 24.375 13.6084V9.375H3.75V22.5H13.1689ZM21.5625 28.125C22.4707 28.125 23.3203 27.9541 24.1113 27.6123C24.9023 27.2705 25.5957 26.8018 26.1914 26.2061C26.7871 25.6104 27.2559 24.917 27.5977 24.126C27.9395 23.335 28.1152 22.4805 28.125 21.5625C28.125 20.6543 27.9541 19.8047 27.6123 19.0137C27.2705 18.2227 26.8018 17.5293 26.2061 16.9336C25.6104 16.3379 24.917 15.8691 24.126 15.5273C23.335 15.1855 22.4805 15.0098 21.5625 15C20.6543 15 19.8047 15.1709 19.0137 15.5127C18.2227 15.8545 17.5293 16.3232 16.9336 16.9189C16.3379 17.5146 15.8691 18.208 15.5273 18.999C15.1855 19.79 15.0098 20.6445 15 21.5625C15 22.4707 15.1709 23.3203 15.5127 24.1113C15.8545 24.9023 16.3232 25.5957 16.9189 26.1914C17.5146 26.7871 18.208 27.2559 18.999 27.5977C19.79 27.9395 20.6445 28.1152 21.5625 28.125ZM22.5 20.625H25.3125V22.5H20.625V16.875H22.5V20.625ZM5.625 15H7.5V16.875H5.625V15ZM9.375 15H11.25V16.875H9.375V15ZM9.375 11.25H11.25V13.125H9.375V11.25ZM5.625 18.75H7.5V20.625H5.625V18.75ZM9.375 18.75H11.25V20.625H9.375V18.75ZM15 13.125H13.125V11.25H15V13.125ZM18.75 13.125H16.875V11.25H18.75V13.125ZM22.5 13.125H20.625V11.25H22.5V13.125Z" fill="#056AB5"/>
</svg>
